<svg xmlns="http://www.w3.org/2000/svg" xmlns:svg="http://www.w3.org/2000/svg" id="svg7384" width="16" height="16" version="1.1"><metadata id="metadata90"/><title id="title9167">Gnome Symbolic Icon Theme</title><g id="layer9" transform="translate(-41.0002,-337)" style="display:inline"><path id="path3940-5" d="m 51.55489,345.09373 c -0.70541,0.62353 -1.53918,0.90625 -2.55469,0.90625 -1.01551,0 -1.85318,-0.29053 -2.55859,-0.91406 -1.10938,0.36328 -2.43603,1.28775 -2.4375,2.90234 l -0.0039,3.01172 c -7.2e-4,0.554 0.446,1.00002 1,1.00002 l 8,0 c 0.554,0 1,-0.44602 1,-1.00002 l 0,-3 c 0,-1.38672 -1.10231,-2.5558 -2.44531,-2.90625 z" style="fill:#bebebe;fill-opacity:1;stroke:none"/><path id="path3942-6" d="m 52,342.5 a 2.5,2.5 0 1 1 -5,0 2.5,2.5 0 1 1 5,0 z" transform="matrix(1.2,0,0,1.2,-10.3998,-69.00003)" style="color:#bebebe;fill:#bebebe;fill-opacity:1;fill-rule:nonzero;stroke:none;stroke-width:2;marker:none;visibility:visible;display:inline;overflow:visible;enable-background:accumulate"/></g></svg>