<svg xmlns="http://www.w3.org/2000/svg" xmlns:svg="http://www.w3.org/2000/svg" xmlns:xlink="http://www.w3.org/1999/xlink" id="svg2" width="28.74" height="38.98" version="1.1"><defs id="defs4"><linearGradient id="linearGradient3887"><stop id="stop3889" offset="0" style="stop-color:#ff573f;stop-opacity:1"/><stop id="stop3891" offset="1" style="stop-color:#b71111;stop-opacity:1"/></linearGradient><linearGradient id="linearGradient3857"><stop style="stop-color:#87b5f5;stop-opacity:1" id="stop3859" offset="0"/><stop style="stop-color:#87b5f5;stop-opacity:0" id="stop3861" offset="1"/></linearGradient><linearGradient id="linearGradient3849"><stop style="stop-color:#fff;stop-opacity:1" id="stop3851" offset="0"/><stop style="stop-color:#fff;stop-opacity:0" id="stop3853" offset="1"/></linearGradient><linearGradient id="linearGradient3827"><stop id="stop3829" offset="0" style="stop-color:#50a9ff;stop-opacity:1"/><stop id="stop3831" offset="1" style="stop-color:#0034a9;stop-opacity:.92490119"/></linearGradient><linearGradient id="linearGradient3821"><stop id="stop3823" offset="0" style="stop-color:#60aaf1;stop-opacity:1"/><stop id="stop3825" offset="1" style="stop-color:#124cd1;stop-opacity:.92490119"/></linearGradient><linearGradient id="linearGradient3787"><stop style="stop-color:#535353;stop-opacity:1" id="stop3789" offset="0"/><stop style="stop-color:#fff;stop-opacity:0" id="stop3791" offset="1"/></linearGradient><linearGradient id="linearGradient3765"><stop style="stop-color:#23b3ff;stop-opacity:1" id="stop3767" offset="0"/><stop style="stop-color:#124cd1;stop-opacity:.92490119" id="stop3769" offset="1"/></linearGradient><linearGradient id="linearGradient3771" x1="381.429" x2="381.429" y1="335.096" y2="567.159" gradientTransform="matrix(0.13306152,0,0,0.13306152,324.43662,388.73998)" gradientUnits="userSpaceOnUse" xlink:href="#linearGradient3765"/><radialGradient id="radialGradient3793" cx="374.25" cy="464.112" r="8.25" fx="374.25" fy="464.112" gradientTransform="matrix(1,0,0,0.33333333,0,309.40812)" gradientUnits="userSpaceOnUse" xlink:href="#linearGradient3787"/><filter id="filter3803" width="1.192" height="1.577" x="-.096" y="-.288" color-interpolation-filters="sRGB"><feGaussianBlur id="feGaussianBlur3805" stdDeviation=".661"/></filter><radialGradient id="radialGradient3843" cx="374.25" cy="464.112" r="8.25" fx="374.25" fy="464.112" gradientTransform="matrix(1,0,0,0.33333333,0,309.40812)" gradientUnits="userSpaceOnUse" xlink:href="#linearGradient3787"/><linearGradient id="linearGradient3845" x1="381.429" x2="381.429" y1="335.096" y2="567.159" gradientTransform="matrix(0.13306152,0,0,0.13306152,394.43662,388.73998)" gradientUnits="userSpaceOnUse" xlink:href="#linearGradient3765"/><linearGradient id="linearGradient3855" x1="461.5" x2="462.5" y1="477.362" y2="434.362" gradientUnits="userSpaceOnUse" xlink:href="#linearGradient3849"/><linearGradient id="linearGradient3863" x1="444.959" x2="444.959" y1="433.89" y2="454.773" gradientUnits="userSpaceOnUse" xlink:href="#linearGradient3857"/><linearGradient id="linearGradient3871" x1="382.177" x2="382.177" y1="377.479" y2="414.475" gradientUnits="userSpaceOnUse" xlink:href="#linearGradient3849"/><radialGradient id="radialGradient3883" cx="374.25" cy="464.112" r="8.25" fx="374.25" fy="464.112" gradientTransform="matrix(1,0,0,0.33333333,0,309.40812)" gradientUnits="userSpaceOnUse" xlink:href="#linearGradient3787"/><linearGradient id="linearGradient3885" x1="381.429" x2="381.429" y1="335.096" y2="567.159" gradientTransform="matrix(0.13306152,0,0,0.13306152,270.34295,388.73998)" gradientUnits="userSpaceOnUse" xlink:href="#linearGradient3887"/><radialGradient id="radialGradient3925" cx="374.25" cy="464.112" r="8.25" fx="374.25" fy="464.112" gradientTransform="matrix(1,0,0,0.33333333,0,309.40812)" gradientUnits="userSpaceOnUse" xlink:href="#linearGradient3787"/><linearGradient id="linearGradient3927" x1="381.429" x2="381.429" y1="335.096" y2="567.159" gradientTransform="matrix(0.13306152,0,0,0.13306152,324.43662,388.73998)" gradientUnits="userSpaceOnUse" xlink:href="#linearGradient3765"/><radialGradient id="radialGradient3941" cx="374.25" cy="464.112" r="8.25" fx="374.25" fy="464.112" gradientTransform="matrix(1,0,0,0.33333333,0,309.40812)" gradientUnits="userSpaceOnUse" xlink:href="#linearGradient3787"/><linearGradient id="linearGradient3943" x1="381.429" x2="381.429" y1="335.096" y2="567.159" gradientTransform="matrix(0.13306152,0,0,0.13306152,324.43662,388.73998)" gradientUnits="userSpaceOnUse" xlink:href="#linearGradient3765"/><radialGradient id="radialGradient3945" cx="374.25" cy="464.112" r="8.25" fx="374.25" fy="464.112" gradientTransform="matrix(1,0,0,0.33333333,0,309.40812)" gradientUnits="userSpaceOnUse" xlink:href="#linearGradient3787"/><linearGradient id="linearGradient3947" x1="381.429" x2="381.429" y1="335.096" y2="567.159" gradientTransform="matrix(0.13306152,0,0,0.13306152,270.34295,388.73998)" gradientUnits="userSpaceOnUse" xlink:href="#linearGradient3765"/><radialGradient id="radialGradient3506" cx="374.25" cy="464.112" r="8.25" fx="374.25" fy="464.112" gradientTransform="matrix(1,0,0,0.33333333,0,309.40812)" gradientUnits="userSpaceOnUse" xlink:href="#linearGradient3787"/><linearGradient id="linearGradient3508" x1="381.429" x2="381.429" y1="335.096" y2="567.159" gradientTransform="matrix(0.13306152,0,0,0.13306152,270.34295,388.73998)" gradientUnits="userSpaceOnUse" xlink:href="#linearGradient3765"/><radialGradient id="radialGradient3522" cx="374.25" cy="464.112" r="8.25" fx="374.25" fy="464.112" gradientTransform="matrix(1,0,0,0.33333333,0,309.40812)" gradientUnits="userSpaceOnUse" xlink:href="#linearGradient3787"/><linearGradient id="linearGradient3524" x1="381.429" x2="381.429" y1="335.096" y2="567.159" gradientTransform="matrix(0.13306152,0,0,0.13306152,270.34295,388.73998)" gradientUnits="userSpaceOnUse" xlink:href="#linearGradient3765"/></defs><metadata id="metadata7"/><g id="layer1" transform="translate(-306.53522,-506.69183)"><g id="g3035" transform="translate(0,75.224057)"><ellipse style="opacity:.58662612;fill:url(#radialGradient3945);fill-opacity:1;stroke:#none;filter:url(#filter3803)" id="path3873" cx="374.25" cy="464.112" rx="8.25" ry="2.75" transform="matrix(1.3594635,0,0,1,-187.87288,1)"/><path style="fill:url(#linearGradient3947);fill-opacity:1;stroke:#0c438d;stroke-width:1;stroke-miterlimit:4;stroke-dasharray:none;stroke-opacity:1" id="path3875" d="m 320.90633,432.9663 c -5.14414,0 -9.3143,4.17016 -9.3143,9.31432 0,1.76829 0.91939,4.12348 1.34724,4.82763 0.42786,0.70414 7.79657,17.16494 7.79657,17.16494 0,0 7.58026,-16.29039 8.03775,-17.01109 0.45749,-0.7207 1.44704,-3.14782 1.44704,-4.98148 0,-5.14416 -4.17016,-9.31432 -9.3143,-9.31432 z"/><path id="path3877" d="m 320.90633,434.00353 c -4.50028,0 -8.14847,3.69949 -8.14847,8.26307 0,1.56873 0.80432,3.6581 1.17861,4.28277 0.3743,0.62468 6.82071,15.22767 6.82071,15.22767 0,0 6.63148,-14.45182 7.03171,-15.09118 0.40022,-0.63936 1.26591,-2.79256 1.26591,-4.41926 0,-4.56358 -3.64819,-8.26307 -8.14847,-8.26307 z" style="fill:none;stroke:#5e9cf1;stroke-width:1.03512061;stroke-miterlimit:4;stroke-dasharray:none;stroke-opacity:1"/><circle id="path3879" cx="381.25" cy="396.112" r="18.75" transform="matrix(0.23144871,0,0,0.23144871,232.66651,350.69905)" style="fill:#fff;fill-opacity:1;stroke:#5e9cf1;stroke-width:4.32061148;stroke-linecap:butt;stroke-linejoin:miter;stroke-miterlimit:4;stroke-dasharray:none;stroke-dashoffset:.69999999;stroke-opacity:1"/><circle style="fill:#fff;fill-opacity:1;stroke:#0c438d;stroke-width:6.2157526;stroke-linecap:butt;stroke-linejoin:miter;stroke-miterlimit:4;stroke-dasharray:none;stroke-dashoffset:.69999999;stroke-opacity:1" id="path3881" cx="381.25" cy="396.112" r="18.75" transform="matrix(0.17705667,0,0,0.17705667,253.40348,372.2444)"/></g><g id="g3494" transform="matrix(0.62943981,0,0,0.62943981,124.11992,251.22885)"><ellipse id="ellipse3496" cx="374.25" cy="464.112" rx="8.25" ry="2.75" transform="matrix(1.3594635,0,0,1,-187.87288,1)" style="opacity:.58662612;fill:url(#radialGradient3506);fill-opacity:1;stroke:#none;filter:url(#filter3803)"/><path id="path3498" d="m 320.90633,432.9663 c -5.14414,0 -9.3143,4.17016 -9.3143,9.31432 0,1.76829 0.91939,4.12348 1.34724,4.82763 0.42786,0.70414 7.79657,17.16494 7.79657,17.16494 0,0 7.58026,-16.29039 8.03775,-17.01109 0.45749,-0.7207 1.44704,-3.14782 1.44704,-4.98148 0,-5.14416 -4.17016,-9.31432 -9.3143,-9.31432 z" style="fill:url(#linearGradient3508);fill-opacity:1;stroke:#0c438d;stroke-width:1;stroke-miterlimit:4;stroke-dasharray:none;stroke-opacity:1"/><path style="fill:none;stroke:#5e9cf1;stroke-width:1.03512061;stroke-miterlimit:4;stroke-dasharray:none;stroke-opacity:1" id="path3500" d="m 320.90633,434.00353 c -4.50028,0 -8.14847,3.69949 -8.14847,8.26307 0,1.56873 0.80432,3.6581 1.17861,4.28277 0.3743,0.62468 6.82071,15.22767 6.82071,15.22767 0,0 6.63148,-14.45182 7.03171,-15.09118 0.40022,-0.63936 1.26591,-2.79256 1.26591,-4.41926 0,-4.56358 -3.64819,-8.26307 -8.14847,-8.26307 z"/><circle style="fill:#fff;fill-opacity:1;stroke:#5e9cf1;stroke-width:4.32061148;stroke-linecap:butt;stroke-linejoin:miter;stroke-miterlimit:4;stroke-dasharray:none;stroke-dashoffset:.69999999;stroke-opacity:1" id="circle3502" cx="381.25" cy="396.112" r="18.75" transform="matrix(0.23144871,0,0,0.23144871,232.66651,350.69905)"/><circle id="circle3504" cx="381.25" cy="396.112" r="18.75" transform="matrix(0.17705667,0,0,0.17705667,253.40348,372.2444)" style="fill:#fff;fill-opacity:1;stroke:#0c438d;stroke-width:6.2157526;stroke-linecap:butt;stroke-linejoin:miter;stroke-miterlimit:4;stroke-dasharray:none;stroke-dashoffset:.69999999;stroke-opacity:1"/></g><g id="g3510" transform="matrix(0.62943981,0,0,0.62943981,113.99492,248.22885)"><ellipse style="opacity:.58662612;fill:url(#radialGradient3522);fill-opacity:1;stroke:#none;filter:url(#filter3803)" id="ellipse3512" cx="374.25" cy="464.112" rx="8.25" ry="2.75" transform="matrix(1.3594635,0,0,1,-187.87288,1)"/><path style="fill:url(#linearGradient3524);fill-opacity:1;stroke:#0c438d;stroke-width:1;stroke-miterlimit:4;stroke-dasharray:none;stroke-opacity:1" id="path3514" d="m 320.90633,432.9663 c -5.14414,0 -9.3143,4.17016 -9.3143,9.31432 0,1.76829 0.91939,4.12348 1.34724,4.82763 0.42786,0.70414 7.79657,17.16494 7.79657,17.16494 0,0 7.58026,-16.29039 8.03775,-17.01109 0.45749,-0.7207 1.44704,-3.14782 1.44704,-4.98148 0,-5.14416 -4.17016,-9.31432 -9.3143,-9.31432 z"/><path id="path3516" d="m 320.90633,434.00353 c -4.50028,0 -8.14847,3.69949 -8.14847,8.26307 0,1.56873 0.80432,3.6581 1.17861,4.28277 0.3743,0.62468 6.82071,15.22767 6.82071,15.22767 0,0 6.63148,-14.45182 7.03171,-15.09118 0.40022,-0.63936 1.26591,-2.79256 1.26591,-4.41926 0,-4.56358 -3.64819,-8.26307 -8.14847,-8.26307 z" style="fill:none;stroke:#5e9cf1;stroke-width:1.03512061;stroke-miterlimit:4;stroke-dasharray:none;stroke-opacity:1"/><circle id="circle3518" cx="381.25" cy="396.112" r="18.75" transform="matrix(0.23144871,0,0,0.23144871,232.66651,350.69905)" style="fill:#fff;fill-opacity:1;stroke:#5e9cf1;stroke-width:4.32061148;stroke-linecap:butt;stroke-linejoin:miter;stroke-miterlimit:4;stroke-dasharray:none;stroke-dashoffset:.69999999;stroke-opacity:1"/><circle style="fill:#fff;fill-opacity:1;stroke:#0c438d;stroke-width:6.2157526;stroke-linecap:butt;stroke-linejoin:miter;stroke-miterlimit:4;stroke-dasharray:none;stroke-dashoffset:.69999999;stroke-opacity:1" id="circle3520" cx="381.25" cy="396.112" r="18.75" transform="matrix(0.17705667,0,0,0.17705667,253.40348,372.2444)"/></g></g></svg>