<svg xmlns="http://www.w3.org/2000/svg" xmlns:osb="http://www.openswatchbook.org/uri/2009/osb" xmlns:svg="http://www.w3.org/2000/svg" id="svg7384" width="17" height="17" version="1.1" viewBox="0 0 17 17"><metadata id="metadata90"/><title id="title9167">Gnome Symbolic Icon Theme</title><defs id="defs7386"><linearGradient id="linearGradient19282" gradientTransform="matrix(-2.7365795,0.28202934,-0.18908311,-0.99988321,239.54008,-879.45557)" osb:paint="solid"><stop id="stop19284" offset="0" style="stop-color:#666;stop-opacity:1"/></linearGradient></defs><g id="layer12" transform="translate(-80.000204,-906.00001)" style="display:inline"><path id="rect8856-7-5" d="m 80,906 0,0.94531 0,16.05469 17,0 0,-17 -17,0 z m 1.888672,1.88867 13.222656,0 0,13.22266 -13.222656,0 0,-13.22266 z" style="color:#bebebe;font-style:normal;font-variant:normal;font-weight:400;font-stretch:normal;font-size:medium;line-height:normal;font-family:sans-serif;text-indent:0;text-align:start;text-decoration:none;text-decoration-line:none;text-decoration-style:solid;text-decoration-color:#000;letter-spacing:normal;word-spacing:normal;text-transform:none;direction:ltr;block-progression:tb;writing-mode:lr-tb;baseline-shift:baseline;text-anchor:start;white-space:normal;clip-rule:nonzero;display:inline;overflow:visible;visibility:visible;opacity:1;isolation:auto;mix-blend-mode:normal;color-interpolation:sRGB;color-interpolation-filters:linearRGB;solid-color:#000;solid-opacity:1;fill:#bebebe;fill-opacity:1;fill-rule:nonzero;stroke:none;stroke-width:1.8888886;stroke-linecap:butt;stroke-linejoin:miter;stroke-miterlimit:4;stroke-dasharray:none;stroke-dashoffset:0;stroke-opacity:1;marker:none;color-rendering:auto;image-rendering:auto;shape-rendering:auto;text-rendering:auto;enable-background:accumulate"/><path id="path6675" d="m 85.565782,920.60554 -0.0489,-2.24656 c 0,0 1.683015,-0.5639 1.98888,-0.92791 0.423066,-0.50349 -0.836461,-1.30331 -0.795552,-2.03675 0.04091,-0.73344 0.516652,-1.35168 1.789992,-1.39432 1.27334,0.0426 1.715317,0.74125 1.789992,1.51488 0.07467,0.77363 -1.083552,1.57344 -0.795552,1.91619 0.575999,0.6855 1.98888,0.92791 1.98888,0.92791 l -0.0489,2.24656 c -1.95637,-0.0357 -3.91249,-0.0163 -5.86888,0 z" style="fill:#bebebe;fill-opacity:1;fill-rule:evenodd;stroke:none;stroke-width:1px;stroke-linecap:butt;stroke-linejoin:miter;stroke-opacity:1"/></g></svg>