<svg xmlns="http://www.w3.org/2000/svg" xmlns:osb="http://www.openswatchbook.org/uri/2009/osb" xmlns:svg="http://www.w3.org/2000/svg" id="svg7384" width="17" height="17" version="1.1" viewBox="0 0 17 17"><metadata id="metadata90"/><title id="title9167">Gnome Symbolic Icon Theme</title><defs id="defs7386"><linearGradient id="linearGradient19282" gradientTransform="matrix(-2.7365795,0.28202934,-0.18908311,-0.99988321,239.54008,-879.45557)" osb:paint="solid"><stop id="stop19284" offset="0" style="stop-color:#666;stop-opacity:1"/></linearGradient></defs><g id="layer12" transform="translate(-100.00027,-906.00001)" style="display:inline"><path id="rect8856-7-5-5" d="m 100,906 0,0.94531 0,16.05469 17,0 0,-17 -17,0 z m 1.88867,1.88867 13.22266,0 0,13.22266 -13.22266,0 0,-13.22266 z" style="color:#bebebe;font-style:normal;font-variant:normal;font-weight:400;font-stretch:normal;font-size:medium;line-height:normal;font-family:sans-serif;text-indent:0;text-align:start;text-decoration:none;text-decoration-line:none;text-decoration-style:solid;text-decoration-color:#000;letter-spacing:normal;word-spacing:normal;text-transform:none;direction:ltr;block-progression:tb;writing-mode:lr-tb;baseline-shift:baseline;text-anchor:start;white-space:normal;clip-rule:nonzero;display:inline;overflow:visible;visibility:visible;opacity:1;isolation:auto;mix-blend-mode:normal;color-interpolation:sRGB;color-interpolation-filters:linearRGB;solid-color:#000;solid-opacity:1;fill:#bebebe;fill-opacity:1;fill-rule:nonzero;stroke:none;stroke-width:1.8888886;stroke-linecap:butt;stroke-linejoin:miter;stroke-miterlimit:4;stroke-dasharray:none;stroke-dashoffset:0;stroke-opacity:1;marker:none;color-rendering:auto;image-rendering:auto;shape-rendering:auto;text-rendering:auto;enable-background:accumulate"/><path id="path6675-6" d="m 103.30949,920.60554 -0.0865,-3.97401 c 0,0 2.97715,-0.9975 3.51819,-1.64141 0.74838,-0.89063 -1.47964,-2.30546 -1.40727,-3.60286 0.0724,-1.29741 0.91392,-2.39103 3.16637,-2.46646 2.25245,0.0754 3.03428,1.31122 3.16636,2.67972 0.13214,1.3685 -1.91672,2.7833 -1.40727,3.3896 1.0189,1.21261 3.51819,1.64141 3.51819,1.64141 l -0.0865,3.97401 c -3.46068,-0.0632 -6.92092,-0.0288 -10.38164,0 z" style="fill:#bebebe;fill-opacity:1;fill-rule:evenodd;stroke:none;stroke-width:1px;stroke-linecap:butt;stroke-linejoin:miter;stroke-opacity:1"/></g></svg>