<svg xmlns="http://www.w3.org/2000/svg" xmlns:osb="http://www.openswatchbook.org/uri/2009/osb" xmlns:svg="http://www.w3.org/2000/svg" id="svg7384" width="16" height="16" version="1.1"><metadata id="metadata90"/><title id="title9167">Gnome Symbolic Icon Theme</title><defs id="defs7386"><linearGradient id="linearGradient19282" gradientTransform="matrix(-2.7365795,0.28202934,-0.18908311,-0.99988321,239.54008,-879.45557)" osb:paint="solid"><stop id="stop19284" offset="0" style="stop-color:#666;stop-opacity:1"/></linearGradient></defs><path id="circle15868" d="M 8,1 C 5.7971778,1 4,2.7971778 4,5 4,7.2028222 5.7971778,9 8,9 10.202822,9 12,7.2028222 12,5 12,2.7971778 10.202822,1 8,1 Z M 8,2.0664062 C 9.6263526,2.0664063 10.933594,3.3736474 10.933594,5 10.933594,6.6263526 9.6263526,7.9335938 8,7.9335938 6.3736474,7.9335938 5.0664062,6.6263526 5.0664062,5 5.0664062,3.3736474 6.3736474,2.0664062 8,2.0664062 Z" style="color:#000;font-style:normal;font-variant:normal;font-weight:400;font-stretch:normal;font-size:medium;line-height:normal;font-family:sans-serif;text-indent:0;text-align:start;text-decoration:none;text-decoration-line:none;text-decoration-style:solid;text-decoration-color:#000;letter-spacing:normal;word-spacing:normal;text-transform:none;direction:ltr;block-progression:tb;writing-mode:lr-tb;baseline-shift:baseline;text-anchor:start;white-space:normal;clip-rule:nonzero;display:inline;overflow:visible;visibility:visible;opacity:1;isolation:auto;mix-blend-mode:normal;color-interpolation:sRGB;color-interpolation-filters:linearRGB;solid-color:#000;solid-opacity:1;fill:#bebebe;fill-opacity:1;fill-rule:nonzero;stroke:none;stroke-width:1.06666684;stroke-linecap:round;stroke-linejoin:round;stroke-miterlimit:4;stroke-dasharray:none;stroke-dashoffset:0;stroke-opacity:1;marker:none;color-rendering:auto;image-rendering:auto;shape-rendering:auto;text-rendering:auto;enable-background:new"/><path id="circle15870" d="M 4,8 C 1.7971778,8 0,9.7971778 0,12 0,14.202822 1.7971778,16 4,16 6.2028222,16 8,14.202822 8,12 8,9.7971778 6.2028222,8 4,8 Z M 4,9.0664062 C 5.6263526,9.0664062 6.9335937,10.373647 6.9335938,12 6.9335938,13.626353 5.6263526,14.933594 4,14.933594 2.3736474,14.933594 1.0664062,13.626353 1.0664062,12 1.0664063,10.373647 2.3736474,9.0664063 4,9.0664062 Z" style="color:#000;font-style:normal;font-variant:normal;font-weight:400;font-stretch:normal;font-size:medium;line-height:normal;font-family:sans-serif;text-indent:0;text-align:start;text-decoration:none;text-decoration-line:none;text-decoration-style:solid;text-decoration-color:#000;letter-spacing:normal;word-spacing:normal;text-transform:none;direction:ltr;block-progression:tb;writing-mode:lr-tb;baseline-shift:baseline;text-anchor:start;white-space:normal;clip-rule:nonzero;display:inline;overflow:visible;visibility:visible;opacity:1;isolation:auto;mix-blend-mode:normal;color-interpolation:sRGB;color-interpolation-filters:linearRGB;solid-color:#000;solid-opacity:1;fill:#bebebe;fill-opacity:1;fill-rule:nonzero;stroke:none;stroke-width:1.06666684;stroke-linecap:round;stroke-linejoin:round;stroke-miterlimit:4;stroke-dasharray:none;stroke-dashoffset:0;stroke-opacity:1;marker:none;color-rendering:auto;image-rendering:auto;shape-rendering:auto;text-rendering:auto;enable-background:new"/><circle id="circle15872" cx="11.999" cy="12" r="3.999" style="color:#000;display:inline;overflow:visible;visibility:visible;fill:#bebebe;fill-opacity:1;stroke:none;stroke-width:2.15384626;marker:none;enable-background:new"/><circle id="circle15874" cx="4" cy="12" r="3.467" style="color:#000;display:inline;overflow:visible;visibility:visible;fill:#bebebe;fill-opacity:.36403509;stroke:none;stroke-width:2.15384626;stroke-linecap:round;stroke-linejoin:round;stroke-miterlimit:4;stroke-dasharray:none;stroke-dashoffset:0;stroke-opacity:1;marker:none;enable-background:new"/></svg>