<svg xmlns="http://www.w3.org/2000/svg" xmlns:svg="http://www.w3.org/2000/svg" id="svg2394" version="1.0" viewBox="0 0 500 500"><path style="fill:#2c2c2c;fill-rule:evenodd" id="path14" d="M 138.14453 235.48047 C 138.14734 235.54209 138.1495 235.84106 138.15234 235.88086 L 122.5625 235.88086 L 122.56055 235.88086 C 108.43055 235.88086 97.001953 247.31922 97.001953 261.44922 L 97.001953 416.94922 L 409.43164 416.94922 L 409.43164 261.44922 C 409.43164 247.31922 398.00109 235.88086 383.87109 235.88086 L 368.28125 235.88086 C 368.28423 235.84106 368.28613 235.54209 368.28906 235.48047 L 298.55273 235.48047 C 298.54126 235.58953 298.53125 235.82185 298.51953 235.88086 L 207.91016 235.88086 C 207.89864 235.82184 207.88824 235.58955 207.87695 235.48047 L 138.14453 235.48047 z M 97.357422 434.69922 C 99.381422 446.80922 109.89055 456.00977 122.56055 456.00977 L 383.86914 456.00977 C 396.53914 456.00977 407.05008 446.80922 409.08008 434.69922 L 97.359375 434.69922 L 97.357422 434.69922 z"/><metadata id="metadata3614"/><path style="fill:#2c2c2c;fill-rule:evenodd" id="path14-5" d="m 253.22266,81.94726 c -63.73,-0.002 -115.39063,51.66086 -115.39063,115.38086 0,2.99 0.11031,66.29047 0.32031,69.23047 l 230.12891,0 c 0.22,-2.94 0.32031,-66.24047 0.32031,-69.23047 0,-63.72 -51.6589,-115.38086 -115.3789,-115.38086 z m -0.002,69.23047 c 25.49,0 46.14844,20.66039 46.14844,46.15039 0,3.06 -0.27961,66.36047 -0.84961,69.23047 l -90.60937,0 c -0.56,-2.87 -0.84961,-66.17047 -0.84961,-69.23047 0,-25.49 20.67015,-46.15039 46.16015,-46.15039 z"/></svg>