<svg xmlns="http://www.w3.org/2000/svg" xmlns:svg="http://www.w3.org/2000/svg" id="svg2394" version="1.0" viewBox="0 0 500 500"><path style="fill:#2c2c2c;fill-rule:evenodd" id="path14" d="m 122.5625,235.88086 -0.002,0 c -14.13,0 -25.558597,11.43836 -25.558597,25.56836 l 0,155.5 312.429687,0 0,-155.5 c 0,-14.13 -11.43055,-25.56836 -25.56055,-25.56836 l -15.58984,0 c 0.003,-0.0398 0.005,-0.33877 0.008,-0.40039 l -69.73633,0 c -0.0115,0.10906 -0.0215,0.34138 -0.0332,0.40039 -65.89132,-0.43686 -117.23022,0 -175.95703,0 z M 97.357422,434.69922 c 2.024,12.11 12.533128,21.31055 25.203128,21.31055 l 261.30859,0 c 12.67,0 23.18094,-9.20055 25.21094,-21.31055 l -311.720705,0 z"/><metadata id="metadata3614"/><path style="fill:#2c2c2c;fill-rule:evenodd" id="path14-5" d="m 253.22266,51.947266 c -63.73,-0.002 -115.39063,51.660864 -115.39063,115.380854 0,1.75668 0.0432,23.75144 0.11719,42.67188 l 69.41797,0 c -0.1957,-18.90322 -0.30664,-40.87563 -0.30664,-42.67188 0,-25.49 20.67015,-46.15039 46.16015,-46.15039 25.49,0 46.14844,20.66039 46.14844,46.15039 0,3.06001 -0.27961,66.36047 -0.84961,69.23047 l 69.76172,0 c 0.22,-2.94 0.32031,-66.24046 0.32031,-69.23047 0,-63.71999 -51.6589,-115.380854 -115.3789,-115.380854 z"/></svg>