<svg xmlns="http://www.w3.org/2000/svg" xmlns:osb="http://www.openswatchbook.org/uri/2009/osb" xmlns:svg="http://www.w3.org/2000/svg" id="svg7384" width="16" height="16" version="1.1" viewBox="0 0 16 16"><metadata id="metadata90"/><title id="title9167">Gnome Symbolic Icon Theme</title><defs id="defs7386"><linearGradient id="linearGradient19282" gradientTransform="matrix(-2.7365795,0.28202934,-0.18908311,-0.99988321,239.54008,-879.45557)" osb:paint="solid"><stop id="stop19284" offset="0" style="stop-color:#666;stop-opacity:1"/></linearGradient></defs><g id="layer12" transform="translate(-272.84146,-927.00006)" style="display:inline"><path id="path7174-3-1" d="m 277.99277,931.79831 -3.45294,-0.0789 -0.54944,0.78468 -0.54945,0.78469 1.25517,3.2177 7.06217,4.94498 1.64833,-2.35405 1.64833,-2.35406 z M 276.0002,933 a 0.76116,0.76116 0 0 1 0.187,1.06053 0.76116,0.76116 0 0 1 -1.06053,0.187 0.76116,0.76116 0 0 1 -0.187,-1.06053 0.76116,0.76116 0 0 1 1.06053,-0.187 z" style="display:inline;fill:#bebebe;fill-opacity:.67532468;fill-rule:evenodd;stroke:none;stroke-width:.95792449px;stroke-linecap:butt;stroke-linejoin:miter;stroke-opacity:1"/><path id="path7174-3-1-7" d="m 281.0002,929 -3.45294,-0.0789 -0.54944,0.78468 -0.54945,0.78469 1.25517,3.2177 7.06217,4.94498 1.64833,-2.35405 1.64833,-2.35406 z m -1.99257,1.20169 a 0.76116,0.76116 0 0 1 0.187,1.06053 0.76116,0.76116 0 0 1 -1.06053,0.187 0.76116,0.76116 0 0 1 -0.187,-1.06053 0.76116,0.76116 0 0 1 1.06053,-0.187 z" style="display:inline;fill:#bebebe;fill-opacity:1;fill-rule:evenodd;stroke:none;stroke-width:.95792449px;stroke-linecap:butt;stroke-linejoin:miter;stroke-opacity:1"/></g></svg>