<svg xmlns="http://www.w3.org/2000/svg" xmlns:osb="http://www.openswatchbook.org/uri/2009/osb" xmlns:svg="http://www.w3.org/2000/svg" id="svg7384" width="16" height="16" version="1.1" viewBox="0 0 16 16"><metadata id="metadata90"/><title id="title9167">Gnome Symbolic Icon Theme</title><defs id="defs7386"><linearGradient id="linearGradient19282" gradientTransform="matrix(-2.7365795,0.28202934,-0.18908311,-0.99988321,239.54008,-879.45557)" osb:paint="solid"><stop id="stop19284" offset="0" style="stop-color:#666;stop-opacity:1"/></linearGradient></defs><g id="layer12" transform="translate(-179.00014,-927.00006)" style="display:inline"><path id="path3251" d="m 180.0002,928 v 2 h 14 v -2 z" style="fill:#bebebe;fill-opacity:1;fill-rule:evenodd;stroke:none;stroke-width:1px;stroke-linecap:butt;stroke-linejoin:miter;stroke-opacity:1"/><path id="path3253" d="m 182.0002,929.99831 h 10 v 2 h -10 v -2 m -2,12.00169 v -12.00169 h 2 V 940 h 10 v -10.00169 h 2 V 942 Z" style="fill:#bebebe;fill-opacity:1;fill-rule:evenodd;stroke:none;stroke-width:1px;stroke-linecap:butt;stroke-linejoin:miter;stroke-opacity:1"/><path id="path1492" d="m 186.0106,938.20724 h 1.32522 v 1.32521 h -1.32522 z m 3.03455,-4.01404 q 0,0.47054 -0.13445,0.83546 -0.13444,0.35531 -0.3361,0.56657 -0.19206,0.20166 -0.42253,0.41293 -0.23047,0.21126 -0.43214,0.38412 -0.19206,0.17285 -0.3265,0.46094 -0.13444,0.28809 -0.13444,0.653 v 0.19206 h -1.18117 v -0.19206 q 0,-0.57617 0.18246,-1.00831 0.19206,-0.43213 0.45134,-0.68181 0.26889,-0.24968 0.52817,-0.45134 0.26888,-0.21127 0.45134,-0.46094 0.19206,-0.25928 0.19206,-0.57618 0,-0.33611 -0.27849,-0.59539 -0.27849,-0.26888 -1.00831,-0.26888 -0.56658,0 -1.06593,0.21127 l -0.18246,0.0672 -0.38412,-0.91229 0.16325,-0.0864 q 0.67221,-0.33611 1.6037,-0.33611 1.08513,0 1.69972,0.45134 0.6146,0.45134 0.6146,1.33482 z" style="font-style:normal;font-variant:normal;font-weight:700;font-stretch:normal;font-size:9.60297966px;line-height:125%;font-family:Cantarell;-inkscape-font-specification:'Cantarell, Bold';font-variant-ligatures:normal;font-variant-caps:normal;font-variant-numeric:normal;font-feature-settings:normal;text-align:start;letter-spacing:0;word-spacing:0;writing-mode:lr-tb;text-anchor:start;fill:#bebebe;fill-opacity:1;stroke:none;stroke-width:.80024827px;stroke-linecap:butt;stroke-linejoin:miter;stroke-opacity:1"/></g></svg>