<svg xmlns="http://www.w3.org/2000/svg" xmlns:svg="http://www.w3.org/2000/svg" id="svg7384" width="16" height="16" version="1.1"><metadata id="metadata90"/><title id="title9167">Gnome Symbolic Icon Theme</title><g id="layer1" transform="translate(60,-202)"><path id="path11920" d="m -52,207 c -1.656854,0 -3,1.34315 -3,3 0,1.65685 1.343146,3 3,3 1.656854,0 3,-1.34315 3,-3 0,-1.65685 -1.343146,-3 -3,-3 z m 0,1.53125 c 0.787268,0 1.4375,0.65408 1.4375,1.46875 0,0.81467 -0.650232,1.5 -1.4375,1.5 -0.787268,0 -1.4375,-0.68533 -1.4375,-1.5 0,-0.81467 0.650232,-1.46875 1.4375,-1.46875 z" style="fill:#a40000;fill-opacity:1;stroke:none"/><path id="path11928" d="m -52,204 c -4.41828,0 -8,6 -8,6 0,0 3.58172,6 8,6 4.41828,0 8,-6 8,-6 0,0 -3.58172,-6 -8,-6 z m 0,2 c 3.865993,0 6,4 6,4 0,0 -2.134007,4 -6,4 -3.865993,0 -6,-4 -6,-4 0,0 2.134007,-4 6,-4 z" style="fill:#bebebe;fill-opacity:1;stroke:none"/></g></svg>